<svg width="291" height="548" viewBox="0 0 291 548" fill="none" xmlns="http://www.w3.org/2000/svg">
<path d="M36.3753 100.032L60.7012 107.182L64.3914 108.566L59.4062 128.586L40.771 119.911L23.8888 111.051L13.0025 108.651C7.79896 108.167 3.66017 104.078 3.11391 98.8804L2.77186 95.626C2.64405 94.41 2.66586 93.1829 2.8368 91.9721L3.31612 88.5771C3.49888 87.2827 4.03 86.0623 4.85269 85.0463C6.05655 83.5597 7.80167 82.6122 9.70414 82.4122L13.4896 82.0143C14.8233 81.8742 16.1692 81.8981 17.4971 82.0856L18.6319 82.2458C20.6952 82.5371 22.4829 80.8119 22.2651 78.7396L21.312 69.672C21.1594 68.2198 22.2129 66.9188 23.6651 66.7662C25.1173 66.6135 26.4183 67.6671 26.5709 69.1193L27.5843 78.7606L28.874 91.0314C29.3199 95.2742 32.2823 98.8285 36.3753 100.032Z" fill="#FCCCC6"/>
<path d="M59.1717 467.948L64.4596 448.559L83.8484 453.847L82.0858 469.711L76.7295 470.782C74.4306 471.242 72.0919 471.474 69.7474 471.474C67.4291 471.474 65.1427 470.934 63.0691 469.897L59.1717 467.948Z" fill="#FCCCC6"/>
<g filter="url(#filter0_i_9_68)">
<path d="M46.4039 470.588L60.5049 460.012V462.807C60.5049 464.403 61.1389 465.934 62.2675 467.063C63.3961 468.191 64.9268 468.825 66.5229 468.825H70.7666C73.2914 468.825 75.7816 468.237 78.0398 467.108L81.6564 465.3C84.8066 467.4 86.2385 471.295 85.1983 474.936L84.8978 475.988C83.9724 479.227 81.5082 481.801 78.3124 482.866L72.8433 484.689L58.7422 488.214L42.8786 493.502L39.273 494.223C36.1984 494.838 33.0927 493.319 31.6905 490.515C30.9482 489.03 30.7615 487.329 31.164 485.719L31.4396 484.616C31.998 482.383 33.3083 480.41 35.1502 479.028L46.4039 470.588Z" fill="white"/>
</g>
<path d="M184.628 57.7797V42.303L161.714 47.5909V56.6612C161.714 58.8104 161.214 60.9301 160.253 62.8524C157.908 67.5424 153.114 70.5051 147.87 70.5051H147.613L144.088 89.894L170.527 95.1818L189.916 89.894L200.492 77.5556C191.223 75.4958 184.628 67.2747 184.628 57.7797Z" fill="#FCCBC6"/>
<path d="M137.431 510.087V492.461H156.82V510.087C152.458 513.359 146.68 514.051 141.669 511.904L137.431 510.087Z" fill="#FCCCC6"/>
<g filter="url(#filter1_i_9_68)">
<path d="M122.9 522.864L137.001 505.238C139.32 506.397 141.876 507.001 144.468 507.001H148.35C149.007 507.001 149.662 506.92 150.3 506.76C153.879 505.866 156.39 502.65 156.39 498.96V498.187L158.555 499.053C162.683 500.704 165.65 504.391 166.381 508.776C166.764 511.074 166.509 513.432 165.644 515.594L165.244 516.593C164.067 519.537 162.07 522.081 159.49 523.924L151.103 529.915L138.764 538.728L126.453 545.567C124.123 546.862 121.502 547.541 118.836 547.541H116.066C114.776 547.541 113.514 547.159 112.441 546.443C110.238 544.974 109.138 542.321 109.658 539.724L110.013 537.946C110.371 536.157 111.251 534.514 112.541 533.224L122.9 522.864Z" fill="white"/>
</g>
<g filter="url(#filter2_d_9_68)">
<path d="M160.036 8.47943L171.494 7.05054H172.724C179.768 7.05054 186.715 8.6872 193.018 11.8314C193.446 12.0449 193.818 12.3551 194.106 12.7374L196.666 16.1433C198.06 17.9981 199.005 20.1511 199.427 22.433L200.125 26.2171C200.367 27.523 200.305 28.8669 199.946 30.1455C199.215 32.7516 197.312 34.8685 194.798 35.8718L191.08 37.3553C190.542 37.5702 190.073 37.9288 189.725 38.3921C186.694 42.4234 182.945 45.8599 178.665 48.5285L174.1 51.3754C172.373 52.4521 170.488 53.2512 168.514 53.7436L165.689 54.4482C160.823 55.6619 155.677 54.2382 152.126 50.6961C150.289 48.8632 148.986 46.565 148.355 44.0477L148.138 43.1836C147.789 41.7914 147.613 40.3617 147.613 38.9265V32.5782L148.738 19.1092C149.094 14.8483 151.828 11.1547 155.799 9.5699C157.159 9.02712 158.583 8.66065 160.036 8.47943Z" fill="#FCCBC6"/>
</g>
<path d="M164.273 16.0569L161.883 16.5349C158.325 17.2465 155.057 18.9954 152.491 21.5611L152.123 21.9296C151.468 22.5844 150.88 23.3022 150.366 24.0726C148.571 26.7652 147.613 29.9289 147.613 33.165V35.9478C147.613 40.0917 148.84 44.1429 151.138 47.5909L152.565 49.7302C153.925 51.7709 155.944 53.3057 158.271 54.0813C159.379 54.4505 160.547 54.6414 161.714 54.6414V59.9293L160.81 62.6417C160.245 64.3354 159.294 65.8744 158.032 67.1368C155.875 69.2935 152.95 70.5051 149.9 70.5051H149.376L147.613 75.7929V65.2172V56.6901C147.613 52.9983 147.018 49.3306 145.85 45.8283C144.681 38.8119 144.494 31.667 145.295 24.599L145.85 19.6928L146.316 16.9964C147.145 12.1954 149.895 7.93967 153.931 5.21153C155.583 4.09519 157.41 3.26264 159.336 2.74825L162.745 1.83771C167.154 0.660207 171.85 1.26646 175.815 3.52525L181.298 2.15441C182.339 1.8942 183.408 1.76263 184.481 1.76263C187.961 1.76263 191.299 3.14508 193.759 5.60586L194.286 6.13253C194.897 6.74336 195.453 7.40609 195.95 8.11324L196.845 9.38954C199.218 12.7723 200.492 16.8043 200.492 20.9367V25.7459C200.492 34.4078 201.44 43.0437 203.319 51.4993L207.542 70.505L212.83 91.6566L218.118 107.52L172.29 96.9444L191.679 75.7929L186.391 72.2677L182.866 66.9798L181.211 62.8429C179.975 59.7538 179.34 56.4573 179.34 53.1301C179.34 50.6288 179.744 48.1437 180.535 45.7707L181.103 44.0656L181.619 42.5169C182.417 40.1228 184.134 38.1437 186.391 37.0151L190.008 35.2066C192.237 34.0923 194.044 32.2852 195.158 30.0565C195.189 29.9953 195.215 29.9321 195.236 29.8672L195.835 28.0727C196.483 26.1272 195.595 24.0018 193.755 23.0965C191.08 21.3356 187.463 22.4619 186.26 25.4301L185.248 27.9298C185.181 28.0943 185.021 28.202 184.844 28.202C182.416 28.202 180.053 27.4145 178.11 25.9576L174.052 22.9141L166.009 16.4791C165.521 16.0889 164.886 15.9344 164.273 16.0569Z" fill="#842D5A"/>
<path d="M94.7344 162.162L101.785 137.485L108.835 114.571L129.987 118.096L115.886 167.45L94.7344 162.162Z" fill="#F65926"/>
<g filter="url(#filter3_i_9_68)">
<path d="M249.846 144.535V120.803C249.846 116.812 248.26 112.986 245.439 110.164C242.617 107.343 238.791 105.758 234.801 105.758H202.255L189.916 190.364L201.747 225.857C204.156 233.081 210.917 237.955 218.532 237.955C224.825 237.955 230.644 234.612 233.814 229.177L236.868 223.941C239.616 219.232 241.373 214.012 242.033 208.6L249.846 144.535Z" fill="white"/>
</g>
<g filter="url(#filter4_i_9_68)">
<path d="M67.1488 290.923L114.233 204.275L136.636 209.086L137.857 238.573C138.738 259.877 132.855 280.914 121.05 298.669L99.3332 331.333C96.1208 336.164 94.7501 341.989 95.4706 347.746C97.2038 361.595 97.1488 375.61 95.3069 389.445L86.4723 455.803C86.2594 457.403 84.8199 458.547 83.2139 458.394L60.5425 456.233L56.0982 354.876L55.789 352.57C52.9417 331.336 56.9199 309.747 67.1488 290.923Z" fill="url(#paint0_linear_9_68)"/>
</g>
<g filter="url(#filter5_i_9_68)">
<path d="M136.914 217.405L207.479 215.387C207.896 250.204 199.928 284.609 184.248 315.698L182.113 319.932L174.618 335.466C165.589 354.18 161.691 374.956 163.321 395.67L158.846 493.277C158.8 494.285 158.01 495.1 157.005 495.18L130.65 497.254L122.085 388.425C120.334 366.173 121.318 343.79 125.016 321.778L130.284 290.418L136.914 217.405Z" fill="url(#paint1_linear_9_68)"/>
</g>
<g filter="url(#filter6_i_9_68)">
<path d="M225.169 133.96L263.946 170.975L253.371 218.566L200.492 190.364L225.169 133.96Z" fill="#F65926"/>
</g>
<g filter="url(#filter7_i_9_68)">
<path d="M249.016 226.888L264.631 146.554C265.251 143.369 267.348 140.668 270.28 139.279C274.074 137.482 278.581 138.191 281.64 141.067L281.993 141.399C284.723 143.967 285.945 147.755 285.23 151.434L269.779 230.924C269.674 231.466 269.149 231.82 268.606 231.715L249.807 228.061C249.265 227.955 248.911 227.43 249.016 226.888Z" fill="white"/>
</g>
<path d="M266.128 231.233L252.286 228.542L253.728 239.596L260.649 240.942L266.128 231.233Z" fill="#DDDDDD"/>
<g filter="url(#filter8_di_9_68)">
<path d="M253.076 233.971L253.973 233.936C258.069 233.772 262.117 234.865 265.575 237.068C267.973 238.596 269.425 241.243 269.425 244.087L269.425 247.196C269.425 249.11 269.033 251.003 268.272 252.759L253.665 286.467C251.865 290.62 245.696 289.535 245.423 285.016L243.133 247.244C243.036 245.636 243.248 244.024 243.757 242.495L244.434 240.466C245.684 236.715 249.125 234.129 253.076 233.971Z" fill="#2BAEC4"/>
</g>
<g filter="url(#filter9_i_9_68)">
<path d="M76.2789 157.478L88.8173 92.9727C89.4944 89.4895 91.9422 86.6132 95.2724 85.3879C98.5929 84.1661 102.31 84.7626 105.082 86.962L105.447 87.2522C108.657 89.7992 110.18 93.9218 109.398 97.9438L97.0418 161.513C96.9364 162.056 96.4115 162.41 95.8693 162.304L77.0697 158.65C76.5275 158.545 76.1735 158.02 76.2789 157.478Z" fill="white"/>
</g>
<path d="M93.3905 161.822L79.5486 159.132L80.9911 170.186L87.9121 171.531L93.3905 161.822Z" fill="#DDDDDD"/>
<g filter="url(#filter10_di_9_68)">
<path d="M80.3386 164.561L81.2356 164.525C85.3319 164.362 89.3802 165.455 92.8376 167.657C95.2361 169.186 96.6882 171.833 96.6882 174.677L96.6882 177.786C96.6882 179.699 96.2957 181.593 95.5348 183.348L80.9282 217.056C79.1284 221.209 72.9594 220.124 72.6856 215.605L70.3964 177.834C70.2989 176.225 70.5107 174.613 71.0202 173.085L71.6965 171.056C72.9469 167.305 76.3879 164.719 80.3386 164.561Z" fill="#2BAEC4"/>
</g>
<path d="M181.056 75.2209L181.555 75.0546C186.791 73.3092 192.551 74.2438 196.966 77.5556L174.052 128.672L152.901 220.328C143.706 220.328 134.717 217.607 127.067 212.506L122.936 209.753L131.749 169.212L144.088 116.333L149.376 70.5051H154.758C158.173 70.5051 161.542 71.3003 164.596 72.8277L167.449 74.2538C171.677 76.3679 176.572 76.7158 181.056 75.2209Z" fill="white"/>
<g filter="url(#filter11_i_9_68)">
<path d="M187.029 83.3563L193.441 74.0303C202.794 77.5376 211.599 82.3608 219.59 88.3541L221.643 89.8939L214.592 103.995C209.944 114.454 207.542 125.773 207.542 137.218V148.061V199.177L212.467 238.575C212.669 240.191 211.545 241.672 209.935 241.914L187.436 245.289C180.913 246.267 174.27 246.106 167.802 244.813L153.55 241.962C152.147 241.682 151.138 240.45 151.138 239.02V216.391C151.138 207.294 152.156 198.225 154.172 189.353L159.951 163.924L167.002 132.197L168.806 124.53C172.273 109.794 178.453 95.8313 187.029 83.3563Z" fill="#7853BA"/>
</g>
<g filter="url(#filter12_i_9_68)">
<path d="M145.85 155.111L148.315 144.021C153.678 119.886 154.635 94.9802 151.138 70.5051H133.122C132.232 70.5051 131.368 70.8016 130.666 71.3477L120.814 79.0105C117.535 81.5604 114.497 84.4054 111.738 87.5097L88.1218 114.078C87.856 114.377 87.4377 114.489 87.0582 114.362L62.1261 106.052C61.6291 105.886 61.0884 106.132 60.8868 106.616L53.0784 125.356C52.7043 126.254 53.0303 127.29 53.8508 127.812L67.9516 136.786C70.5184 138.419 73.298 139.691 76.212 140.565L81.572 142.173C86.6109 143.685 92.0452 143.118 96.6636 140.599C104.684 136.224 111.672 130.177 117.154 122.868L118.693 120.816C118.923 120.509 119.411 120.672 119.411 121.056V121.232C119.411 129.672 118.179 138.067 115.754 146.151L108.835 169.212L105.31 190.364L99.3985 215.488C98.7309 218.325 100.1 221.249 102.707 222.552C109.127 225.762 115.848 228.33 122.773 230.219L127.992 231.642C129.884 232.158 131.749 230.734 131.749 228.772C131.749 219.652 132.868 210.566 135.08 201.719L138.8 186.838L145.85 155.111Z" fill="#7853BA"/>
</g>
<path d="M147.028 180.33L188.002 176.385L191.38 190.934L169.836 193.009L144.173 193.355L142.438 193.522C135.779 194.163 129.071 194.097 122.426 193.324L118.932 192.55C115.433 191.776 112.333 189.762 110.203 186.88C108.653 184.783 109.097 181.828 111.194 180.278L112.041 179.652C114.411 177.901 117.213 176.826 120.146 176.544L123.873 176.185C124.248 176.149 124.624 176.139 125 176.157L133.7 176.556C135.785 176.652 137.805 177.311 139.546 178.464C141.752 179.925 144.394 180.584 147.028 180.33Z" fill="#FCCCC6"/>
<path d="M204.017 98.7071L211.068 82.8434C216.845 85.1541 221.924 88.9224 225.811 93.7807L226.931 95.1818L225.169 105.758L218.118 126.909L211.068 162.162L202.255 170.975C198.77 166.328 196.315 160.991 195.055 155.321L194.899 154.62C193.933 150.272 193.63 145.803 194 141.364L194.463 135.802C194.956 129.891 196.097 124.053 197.866 118.391L204.017 98.7071Z" fill="url(#paint2_linear_9_68)"/>
<path d="M232.831 95.4878L221.643 89.894L218.118 95.1819L214.593 105.758L213.36 109.765C209.493 122.333 206.991 135.281 205.899 148.385L205.78 149.823L204.17 169.141C204.083 170.177 203.217 170.975 202.177 170.975H182.865L182.403 172.594C180.408 179.577 180.569 187 182.865 193.889L202.823 195.219C207.05 195.501 211.267 194.53 214.945 192.428C219.276 189.954 222.614 186.053 224.39 181.392L230.243 166.026C233.901 156.425 236.552 146.471 238.154 136.323L239.118 130.216C240.389 122.167 240.659 113.992 239.921 105.876C239.516 101.419 236.834 97.4892 232.831 95.4878Z" fill="url(#paint3_linear_9_68)"/>
<path d="M134.102 75.9557L137.037 70.5051H142.325L135.29 86.9209C132.936 92.4133 131.159 98.1354 129.987 103.995L124.699 121.621L117.648 137.485L118.971 129.552C119.264 127.793 119.411 126.013 119.411 124.23C119.411 121.323 119.698 118.423 120.268 115.572L120.809 112.868C123.388 99.9738 127.868 87.5338 134.102 75.9557Z" fill="url(#paint4_linear_9_68)"/>
<path d="M155.448 45.0909L159.164 46.5876C159.388 46.6777 159.636 46.6839 159.864 46.6053L164.251 45.0909L170.345 42.6364L160.263 49.4886C159.837 49.7785 159.26 49.6964 158.931 49.2991L155.448 45.0909Z" fill="#C07DA0"/>
<path d="M168.847 25.6477L177.624 26.876L169.214 23.2578C168.865 23.1077 168.461 23.1682 168.172 23.414L164.138 26.8376L168.447 25.6727C168.577 25.6375 168.713 25.629 168.847 25.6477Z" fill="#D6A49E"/>
<path d="M155.963 25.5043L149.241 26.6825L156.322 23.6351C156.71 23.4681 157.161 23.5627 157.448 23.8715L160.565 27.2174L156.514 25.5634C156.339 25.4923 156.149 25.4718 155.963 25.5043Z" fill="#D6A49E"/>
<ellipse cx="155.448" cy="33.4318" rx="2.48276" ry="3.06818" fill="#842D5A"/>
<ellipse cx="167.862" cy="33.4319" rx="2.48276" ry="3.06818" fill="#842D5A"/>
<path d="M172.728 32.8182C172.728 35.4731 170.55 37.6273 167.862 37.6273C165.174 37.6273 162.997 35.4731 162.997 32.8182C162.997 30.1633 165.174 28.0091 167.862 28.0091C170.55 28.0091 172.728 30.1633 172.728 32.8182Z" stroke="black" stroke-width="0.2"/>
<path d="M160.314 32.8182C160.314 35.4731 158.137 37.6273 155.448 37.6273C152.76 37.6273 150.583 35.4731 150.583 32.8182C150.583 30.1633 152.76 28.0091 155.448 28.0091C158.137 28.0091 160.314 30.1633 160.314 32.8182Z" stroke="black" stroke-width="0.2"/>
<line x1="160.414" y1="32.7182" x2="162.897" y2="32.7182" stroke="black" stroke-width="0.2"/>
<line y1="-0.1" x2="12.2034" y2="-0.1" transform="matrix(0.915518 -0.402276 0.410028 0.912073 172.828 32.8182)" stroke="black" stroke-width="0.2"/>
<line y1="-0.1" x2="4.44071" y2="-0.1" transform="matrix(-0.559091 -0.829106 0.834958 -0.550313 150.483 32.8182)" stroke="black" stroke-width="0.2"/>
<defs>
<filter id="filter0_i_9_68" x="30.9564" y="459.012" width="54.5775" height="35.3466" filterUnits="userSpaceOnUse" color-interpolation-filters="sRGB">
<feFlood flood-opacity="0" result="BackgroundImageFix"/>
<feBlend mode="normal" in="SourceGraphic" in2="BackgroundImageFix" result="shape"/>
<feColorMatrix in="SourceAlpha" type="matrix" values="0 0 0 0 0 0 0 0 0 0 0 0 0 0 0 0 0 0 127 0" result="hardAlpha"/>
<feOffset dy="-1"/>
<feGaussianBlur stdDeviation="2"/>
<feComposite in2="hardAlpha" operator="arithmetic" k2="-1" k3="1"/>
<feColorMatrix type="matrix" values="0 0 0 0 0.275 0 0 0 0 0.275 0 0 0 0 0.275 0 0 0 0.25 0"/>
<feBlend mode="normal" in2="shape" result="effect1_innerShadow_9_68"/>
</filter>
<filter id="filter1_i_9_68" x="109.531" y="494.187" width="57.0233" height="53.3535" filterUnits="userSpaceOnUse" color-interpolation-filters="sRGB">
<feFlood flood-opacity="0" result="BackgroundImageFix"/>
<feBlend mode="normal" in="SourceGraphic" in2="BackgroundImageFix" result="shape"/>
<feColorMatrix in="SourceAlpha" type="matrix" values="0 0 0 0 0 0 0 0 0 0 0 0 0 0 0 0 0 0 127 0" result="hardAlpha"/>
<feOffset dy="-4"/>
<feGaussianBlur stdDeviation="2"/>
<feComposite in2="hardAlpha" operator="arithmetic" k2="-1" k3="1"/>
<feColorMatrix type="matrix" values="0 0 0 0 0.408333 0 0 0 0 0.408333 0 0 0 0 0.408333 0 0 0 0.25 0"/>
<feBlend mode="normal" in2="shape" result="effect1_innerShadow_9_68"/>
</filter>
<filter id="filter2_d_9_68" x="143.613" y="7.05054" width="60.6569" height="55.8231" filterUnits="userSpaceOnUse" color-interpolation-filters="sRGB">
<feFlood flood-opacity="0" result="BackgroundImageFix"/>
<feColorMatrix in="SourceAlpha" type="matrix" values="0 0 0 0 0 0 0 0 0 0 0 0 0 0 0 0 0 0 127 0" result="hardAlpha"/>
<feOffset dy="4"/>
<feGaussianBlur stdDeviation="2"/>
<feComposite in2="hardAlpha" operator="out"/>
<feColorMatrix type="matrix" values="0 0 0 0 1 0 0 0 0 1 0 0 0 0 1 0 0 0 0.21 0"/>
<feBlend mode="normal" in2="BackgroundImageFix" result="effect1_dropShadow_9_68"/>
<feBlend mode="normal" in="SourceGraphic" in2="effect1_dropShadow_9_68" result="shape"/>
</filter>
<filter id="filter3_i_9_68" x="187.916" y="105.758" width="61.9293" height="135.197" filterUnits="userSpaceOnUse" color-interpolation-filters="sRGB">
<feFlood flood-opacity="0" result="BackgroundImageFix"/>
<feBlend mode="normal" in="SourceGraphic" in2="BackgroundImageFix" result="shape"/>
<feColorMatrix in="SourceAlpha" type="matrix" values="0 0 0 0 0 0 0 0 0 0 0 0 0 0 0 0 0 0 127 0" result="hardAlpha"/>
<feOffset dx="-2" dy="3"/>
<feGaussianBlur stdDeviation="2"/>
<feComposite in2="hardAlpha" operator="arithmetic" k2="-1" k3="1"/>
<feColorMatrix type="matrix" values="0 0 0 0 0.615686 0 0 0 0 0.764706 0 0 0 0 0.94902 0 0 0 0.45 0"/>
<feBlend mode="normal" in2="shape" result="effect1_innerShadow_9_68"/>
</filter>
<filter id="filter4_i_9_68" x="54.8929" y="204.275" width="84.0502" height="254.133" filterUnits="userSpaceOnUse" color-interpolation-filters="sRGB">
<feFlood flood-opacity="0" result="BackgroundImageFix"/>
<feBlend mode="normal" in="SourceGraphic" in2="BackgroundImageFix" result="shape"/>
<feColorMatrix in="SourceAlpha" type="matrix" values="0 0 0 0 0 0 0 0 0 0 0 0 0 0 0 0 0 0 127 0" result="hardAlpha"/>
<feOffset dx="1"/>
<feGaussianBlur stdDeviation="2"/>
<feComposite in2="hardAlpha" operator="arithmetic" k2="-1" k3="1"/>
<feColorMatrix type="matrix" values="0 0 0 0 1 0 0 0 0 1 0 0 0 0 1 0 0 0 0.25 0"/>
<feBlend mode="normal" in2="shape" result="effect1_innerShadow_9_68"/>
</filter>
<filter id="filter5_i_9_68" x="121.243" y="211.387" width="88.251" height="285.867" filterUnits="userSpaceOnUse" color-interpolation-filters="sRGB">
<feFlood flood-opacity="0" result="BackgroundImageFix"/>
<feBlend mode="normal" in="SourceGraphic" in2="BackgroundImageFix" result="shape"/>
<feColorMatrix in="SourceAlpha" type="matrix" values="0 0 0 0 0 0 0 0 0 0 0 0 0 0 0 0 0 0 127 0" result="hardAlpha"/>
<feOffset dx="2" dy="-4"/>
<feGaussianBlur stdDeviation="2"/>
<feComposite in2="hardAlpha" operator="arithmetic" k2="-1" k3="1"/>
<feColorMatrix type="matrix" values="0 0 0 0 0.941667 0 0 0 0 0.941667 0 0 0 0 0.941667 0 0 0 0.25 0"/>
<feBlend mode="normal" in2="shape" result="effect1_innerShadow_9_68"/>
</filter>
<filter id="filter6_i_9_68" x="200.492" y="133.96" width="63.4545" height="88.6061" filterUnits="userSpaceOnUse" color-interpolation-filters="sRGB">
<feFlood flood-opacity="0" result="BackgroundImageFix"/>
<feBlend mode="normal" in="SourceGraphic" in2="BackgroundImageFix" result="shape"/>
<feColorMatrix in="SourceAlpha" type="matrix" values="0 0 0 0 0 0 0 0 0 0 0 0 0 0 0 0 0 0 127 0" result="hardAlpha"/>
<feOffset dy="4"/>
<feGaussianBlur stdDeviation="2"/>
<feComposite in2="hardAlpha" operator="arithmetic" k2="-1" k3="1"/>
<feColorMatrix type="matrix" values="0 0 0 0 1 0 0 0 0 1 0 0 0 0 1 0 0 0 0.25 0"/>
<feBlend mode="normal" in2="shape" result="effect1_innerShadow_9_68"/>
</filter>
<filter id="filter7_i_9_68" x="248.997" y="138.296" width="39.4334" height="94.4372" filterUnits="userSpaceOnUse" color-interpolation-filters="sRGB">
<feFlood flood-opacity="0" result="BackgroundImageFix"/>
<feBlend mode="normal" in="SourceGraphic" in2="BackgroundImageFix" result="shape"/>
<feColorMatrix in="SourceAlpha" type="matrix" values="0 0 0 0 0 0 0 0 0 0 0 0 0 0 0 0 0 0 127 0" result="hardAlpha"/>
<feOffset dx="3" dy="1"/>
<feGaussianBlur stdDeviation="2"/>
<feComposite in2="hardAlpha" operator="arithmetic" k2="-1" k3="1"/>
<feColorMatrix type="matrix" values="0 0 0 0 0.491667 0 0 0 0 0.491667 0 0 0 0 0.491667 0 0 0 0.25 0"/>
<feBlend mode="normal" in2="shape" result="effect1_innerShadow_9_68"/>
</filter>
<filter id="filter8_di_9_68" x="222.11" y="218.92" width="68.3149" height="97.1425" filterUnits="userSpaceOnUse" color-interpolation-filters="sRGB">
<feFlood flood-opacity="0" result="BackgroundImageFix"/>
<feColorMatrix in="SourceAlpha" type="matrix" values="0 0 0 0 0 0 0 0 0 0 0 0 0 0 0 0 0 0 127 0" result="hardAlpha"/>
<feOffset dy="6"/>
<feGaussianBlur stdDeviation="10.5"/>
<feComposite in2="hardAlpha" operator="out"/>
<feColorMatrix type="matrix" values="0 0 0 0 1 0 0 0 0 1 0 0 0 0 1 0 0 0 1 0"/>
<feBlend mode="normal" in2="BackgroundImageFix" result="effect1_dropShadow_9_68"/>
<feBlend mode="normal" in="SourceGraphic" in2="effect1_dropShadow_9_68" result="shape"/>
<feColorMatrix in="SourceAlpha" type="matrix" values="0 0 0 0 0 0 0 0 0 0 0 0 0 0 0 0 0 0 127 0" result="hardAlpha"/>
<feOffset dx="1" dy="-10"/>
<feGaussianBlur stdDeviation="2"/>
<feComposite in2="hardAlpha" operator="arithmetic" k2="-1" k3="1"/>
<feColorMatrix type="matrix" values="0 0 0 0 1 0 0 0 0 1 0 0 0 0 1 0 0 0 1 0"/>
<feBlend mode="normal" in2="shape" result="effect2_innerShadow_9_68"/>
</filter>
<filter id="filter9_i_9_68" x="76.2603" y="84.7637" width="36.3401" height="78.559" filterUnits="userSpaceOnUse" color-interpolation-filters="sRGB">
<feFlood flood-opacity="0" result="BackgroundImageFix"/>
<feBlend mode="normal" in="SourceGraphic" in2="BackgroundImageFix" result="shape"/>
<feColorMatrix in="SourceAlpha" type="matrix" values="0 0 0 0 0 0 0 0 0 0 0 0 0 0 0 0 0 0 127 0" result="hardAlpha"/>
<feOffset dx="3" dy="1"/>
<feGaussianBlur stdDeviation="2"/>
<feComposite in2="hardAlpha" operator="arithmetic" k2="-1" k3="1"/>
<feColorMatrix type="matrix" values="0 0 0 0 0.491667 0 0 0 0 0.491667 0 0 0 0 0.491667 0 0 0 0.25 0"/>
<feBlend mode="normal" in2="shape" result="effect1_innerShadow_9_68"/>
</filter>
<filter id="filter10_di_9_68" x="60.3733" y="160.509" width="46.3149" height="75.1424" filterUnits="userSpaceOnUse" color-interpolation-filters="sRGB">
<feFlood flood-opacity="0" result="BackgroundImageFix"/>
<feColorMatrix in="SourceAlpha" type="matrix" values="0 0 0 0 0 0 0 0 0 0 0 0 0 0 0 0 0 0 127 0" result="hardAlpha"/>
<feOffset dy="6"/>
<feGaussianBlur stdDeviation="5"/>
<feComposite in2="hardAlpha" operator="out"/>
<feColorMatrix type="matrix" values="0 0 0 0 1 0 0 0 0 1 0 0 0 0 1 0 0 0 1 0"/>
<feBlend mode="normal" in2="BackgroundImageFix" result="effect1_dropShadow_9_68"/>
<feBlend mode="normal" in="SourceGraphic" in2="effect1_dropShadow_9_68" result="shape"/>
<feColorMatrix in="SourceAlpha" type="matrix" values="0 0 0 0 0 0 0 0 0 0 0 0 0 0 0 0 0 0 127 0" result="hardAlpha"/>
<feOffset dx="1" dy="-10"/>
<feGaussianBlur stdDeviation="2"/>
<feComposite in2="hardAlpha" operator="arithmetic" k2="-1" k3="1"/>
<feColorMatrix type="matrix" values="0 0 0 0 1 0 0 0 0 1 0 0 0 0 1 0 0 0 1 0"/>
<feBlend mode="normal" in2="shape" result="effect2_innerShadow_9_68"/>
</filter>
<filter id="filter11_i_9_68" x="151.138" y="74.0303" width="72.5051" height="174.889" filterUnits="userSpaceOnUse" color-interpolation-filters="sRGB">
<feFlood flood-opacity="0" result="BackgroundImageFix"/>
<feBlend mode="normal" in="SourceGraphic" in2="BackgroundImageFix" result="shape"/>
<feColorMatrix in="SourceAlpha" type="matrix" values="0 0 0 0 0 0 0 0 0 0 0 0 0 0 0 0 0 0 127 0" result="hardAlpha"/>
<feOffset dx="2" dy="3"/>
<feGaussianBlur stdDeviation="2"/>
<feComposite in2="hardAlpha" operator="arithmetic" k2="-1" k3="1"/>
<feColorMatrix type="matrix" values="0 0 0 0 1 0 0 0 0 1 0 0 0 0 1 0 0 0 0.25 0"/>
<feBlend mode="normal" in2="shape" result="effect1_innerShadow_9_68"/>
</filter>
<filter id="filter12_i_9_68" x="52.9243" y="70.5051" width="100.276" height="165.243" filterUnits="userSpaceOnUse" color-interpolation-filters="sRGB">
<feFlood flood-opacity="0" result="BackgroundImageFix"/>
<feBlend mode="normal" in="SourceGraphic" in2="BackgroundImageFix" result="shape"/>
<feColorMatrix in="SourceAlpha" type="matrix" values="0 0 0 0 0 0 0 0 0 0 0 0 0 0 0 0 0 0 127 0" result="hardAlpha"/>
<feOffset dy="4"/>
<feGaussianBlur stdDeviation="2"/>
<feComposite in2="hardAlpha" operator="arithmetic" k2="-1" k3="1"/>
<feColorMatrix type="matrix" values="0 0 0 0 0.870833 0 0 0 0 0.870833 0 0 0 0 0.870833 0 0 0 0.25 0"/>
<feBlend mode="normal" in2="shape" result="effect1_innerShadow_9_68"/>
</filter>
<linearGradient id="paint0_linear_9_68" x1="116.481" y1="216.407" x2="69.2081" y2="454.627" gradientUnits="userSpaceOnUse">
<stop stop-color="#362C76"/>
<stop offset="1" stop-color="#524B88"/>
</linearGradient>
<linearGradient id="paint1_linear_9_68" x1="195.317" y1="218.112" x2="139.851" y2="501.834" gradientUnits="userSpaceOnUse">
<stop stop-color="#3B3176"/>
<stop offset="1" stop-color="#554F8B"/>
</linearGradient>
<linearGradient id="paint2_linear_9_68" x1="210.187" y1="82.8434" x2="210.187" y2="170.975" gradientUnits="userSpaceOnUse">
<stop stop-color="white"/>
<stop offset="1" stop-color="#9DC3F2"/>
</linearGradient>
<linearGradient id="paint3_linear_9_68" x1="211.949" y1="89.894" x2="211.949" y2="195.652" gradientUnits="userSpaceOnUse">
<stop stop-color="#9679C9"/>
<stop offset="1" stop-color="#704FB8"/>
</linearGradient>
<linearGradient id="paint4_linear_9_68" x1="129.987" y1="70.5051" x2="129.987" y2="137.485" gradientUnits="userSpaceOnUse">
<stop stop-color="white"/>
<stop offset="1" stop-color="#9DC3F2"/>
</linearGradient>
</defs>
</svg>
