<svg width="291" height="513" viewBox="0 0 291 513" fill="none" xmlns="http://www.w3.org/2000/svg">
<g filter="url(#filter0_i_9_188)">
<path d="M173.04 166.715V108.064C173.04 105.25 174.46 102.625 176.815 101.084C179.417 99.3828 182.748 99.2691 185.46 100.789L185.8 100.98C188.635 102.569 190.39 105.566 190.39 108.816V166.715C190.39 167.268 189.943 167.715 189.39 167.715H174.04C173.488 167.715 173.04 167.268 173.04 166.715Z" fill="white"/>
</g>
<path d="M187.499 167.715H175.932L178.824 176.39H184.607L187.499 167.715Z" fill="#DDDDDD"/>
<g filter="url(#filter1_di_9_188)">
<path d="M177.338 172.063L178.118 171.868C181.429 171.04 184.893 171.04 188.205 171.868C192.038 172.826 194.728 176.271 194.728 180.222V180.728L194.399 184.017C193.682 191.186 190.23 197.802 184.76 202.491C183.842 203.277 182.486 203.27 181.577 202.475L178.635 199.9C174.106 195.938 171.226 190.423 170.562 184.442L170.309 182.171C170.203 181.215 170.245 180.247 170.434 179.304C171.143 175.759 173.831 172.94 177.338 172.063Z" fill="#2BAEC4"/>
</g>
<path d="M135.449 104.099L181.715 118.557L177.378 157.595L149.907 161.932L135.449 104.099Z" fill="#F65926"/>
<g filter="url(#filter2_i_9_188)">
<path d="M62.4801 75.1827H102.195L125.328 76.6286L126.774 190.848H64.9988C62.8277 190.848 60.6765 190.434 58.6606 189.628L58.1713 189.432C55.7538 188.465 53.6281 186.888 52.0015 184.855C49.8642 182.183 48.6998 178.864 48.6998 175.442V88.9631C48.6998 84.0179 51.3495 79.4519 55.6431 76.9984C57.7253 75.8086 60.0819 75.1827 62.4801 75.1827Z" fill="#EBF6FC"/>
</g>
<g filter="url(#filter3_i_9_188)">
<path d="M188.775 138.47L174.229 117.631L160.459 137.99L175.688 155.525C178.458 158.715 181.994 161.147 185.963 162.595C189.347 163.829 192.977 164.236 196.55 163.782L207.328 162.413C213.191 161.668 218.932 160.154 224.4 157.911L235.912 153.19L253.369 144.029C254.031 143.681 254.766 143.498 255.513 143.493L256.353 143.488C263.657 143.445 270.843 141.651 277.311 138.257L279.2 137.266C280.607 136.527 281.938 135.651 283.173 134.651L283.259 134.582C285.13 133.067 286.744 131.261 288.039 129.232C288.844 127.973 288.346 126.292 286.985 125.674L284.26 124.436C282.283 123.538 280.099 123.193 277.941 123.44L272.269 124.089C269.424 124.415 266.611 124.97 263.856 125.75L261.457 126.429C261.206 126.5 261.027 126.189 261.214 126.008L267.144 120.242C267.968 119.441 268.045 118.143 267.322 117.249C266.591 116.346 265.288 116.158 264.331 116.818L255.054 123.218L245.257 131.152C244.39 131.854 243.344 132.3 242.237 132.441L218.882 135.408L193.874 140.508C191.92 140.906 189.916 140.106 188.775 138.47Z" fill="#FCCCC6"/>
</g>
<path d="M254.068 380.849V368.994V364.548H232.729L234.507 380.849L243.399 382.331H248.733L254.068 380.849Z" fill="#FCCCC6"/>
<path d="M261.181 400.114L254.068 380.553L250.389 381.672C248.953 382.109 247.46 382.331 245.959 382.331C244.275 382.331 242.615 381.939 241.108 381.186L234.507 377.885L232.818 378.693C229.193 380.427 227.351 384.527 228.463 388.389C230.68 396.087 234.757 403.122 240.334 408.873L248.223 417.007L250.981 420.031C254.345 423.718 259.95 424.272 263.97 421.314C266.018 419.807 266.861 417.151 266.057 414.739L261.181 400.114Z" fill="white"/>
<path d="M221.971 474.684L214.946 461.805L236.633 451.684L252.537 470.48L247.181 478.514C245.074 481.675 241.696 483.763 237.926 484.234C234.335 484.683 230.718 483.623 227.937 481.305L226.268 479.915C224.519 478.457 223.061 476.683 221.971 474.684Z" fill="#FCCCC6"/>
<path d="M100.749 58.9613V52.0496L119.545 56.387L120.745 63.59C120.907 64.5603 121.273 65.4851 121.819 66.3036C123.108 68.2377 125.279 69.3994 127.603 69.3994H131.112L134.003 85.3035L112.316 89.6409L96.4118 85.3035L87.7369 75.1827C95.3399 73.4932 100.749 66.7497 100.749 58.9613Z" fill="#FCCBC6"/>
<g filter="url(#filter4_i_9_188)">
<path d="M150.979 242.543L136.138 222.088L132.501 213.698L144.33 199.601L198.827 225.312L241.108 248.45C243.398 249.703 245.518 251.245 247.415 253.037C253.657 258.933 257.128 267.184 256.976 275.769L256.727 289.91L259.024 364.649C259.058 365.744 258.204 366.662 257.109 366.708L229.072 367.882C228.049 367.925 227.159 367.188 227.01 366.175L223.69 343.598L213.179 282.516C212.407 278.033 208.792 274.582 204.278 274.021C182.919 271.362 163.619 259.964 150.979 242.543Z" fill="url(#paint0_linear_9_188)"/>
</g>
<g filter="url(#filter5_i_9_188)">
<path d="M114.137 207.702L142.838 211.226L168.418 263.894L194.266 314.631C199.714 325.324 204.086 336.532 207.317 348.09L210.674 360.097C211.941 364.628 212.716 369.283 212.988 373.98C213.335 379.999 214.511 385.941 216.481 391.639L237.04 451.092C237.716 453.048 236.783 455.197 234.892 456.038L211.847 466.28C209.38 467.377 206.488 466.317 205.314 463.886L167.076 384.732C164.552 379.508 162.435 374.097 160.742 368.548C156.927 356.04 150.97 344.29 143.135 333.82L103.943 281.442C98.7674 274.526 94.2496 267.142 90.4479 259.385L82.9756 244.14C80.1444 238.364 78.4415 232.101 77.958 225.686C77.7078 222.366 77.7862 219.029 78.1919 215.724L80.2248 199.168L89.7415 204.706L114.137 207.702Z" fill="url(#paint1_linear_9_188)"/>
</g>
<g filter="url(#filter6_i_9_188)">
<path d="M219.313 478.743L221.062 470.58L228.291 476.364L229.549 477.119C233.299 479.368 237.901 479.681 241.92 477.958C244.348 476.918 246.421 475.193 247.886 472.995L251.424 467.689L283.128 495.43C285.032 497.095 286.124 499.502 286.124 502.031C286.124 504.964 284.658 507.703 282.218 509.33L281.18 510.021C278.787 511.617 275.867 512.221 273.036 511.707L264.717 510.194C262.608 509.811 260.542 509.216 258.551 508.42L239.857 500.943L228.291 495.159C221.645 492.667 217.825 485.684 219.313 478.743Z" fill="white"/>
</g>
<g filter="url(#filter7_i_9_188)">
<path d="M34.2415 137.353L74.7245 106.991V170.607L34.2415 176.39V137.353Z" fill="#F65926"/>
</g>
<g filter="url(#filter8_i_9_188)">
<path d="M16.8917 186.957V120.008C16.8917 117.346 18.1574 114.843 20.3012 113.266C23.0748 111.225 26.8153 111.091 29.7279 112.928L30.0643 113.14C32.6645 114.78 34.2415 117.639 34.2415 120.714V186.957C34.2415 187.509 33.7938 187.957 33.2415 187.957H17.8917C17.3394 187.957 16.8917 187.509 16.8917 186.957Z" fill="white"/>
</g>
<path d="M31.3499 187.957H19.7833L22.675 196.632H28.4583L31.3499 187.957Z" fill="#DDDDDD"/>
<g filter="url(#filter9_di_9_188)">
<path d="M21.189 192.304L21.9688 192.109C25.2802 191.282 28.7445 191.282 32.056 192.109C35.8896 193.068 38.579 196.512 38.579 200.464V200.969L38.25 204.259C37.5332 211.427 34.0808 218.044 28.6108 222.732C27.6933 223.519 26.3375 223.512 25.428 222.716L22.4862 220.142C17.9576 216.179 15.0773 210.665 14.4127 204.684L14.1604 202.413C14.0541 201.456 14.0961 200.489 14.2848 199.545C14.9938 196 17.6818 193.181 21.189 192.304Z" fill="#2BAEC4"/>
</g>
<g filter="url(#filter10_i_9_188)">
<path d="M94.6826 80.1535L89.2389 73.8024C89.2063 73.7644 89.1513 73.7549 89.1079 73.7797L81.2307 78.281C79.7913 79.1035 78.468 80.1142 77.2958 81.2864C73.798 84.7843 71.8329 89.5284 71.8329 94.4751V105.545V138.799V180.728L74.3114 201.795C74.5853 204.123 75.2086 206.396 76.1605 208.538C78.9201 214.747 84.2522 219.442 90.7605 221.395L91.2425 221.54C93.7116 222.28 96.2757 222.657 98.8536 222.657H126.774L152.793 219.109C156.517 218.601 159.916 216.718 162.323 213.831C164.577 211.126 165.811 207.716 165.811 204.195V195.754C165.811 193.452 165.604 191.155 165.192 188.891L162.92 176.39L162.316 169.152C161.756 162.421 161.716 155.657 162.197 148.92L162.92 138.799L166.757 137.154C170.857 135.397 174.358 132.485 176.832 128.773L177.35 127.997C178.327 126.532 179.07 124.925 179.553 123.232L180.536 119.794C181.284 117.175 180.845 114.36 179.334 112.093C178.995 111.585 178.606 111.111 178.174 110.678L172.315 104.819C169.911 102.416 167.723 99.8074 165.774 97.023L162.528 92.3865C159.906 88.6406 156.866 85.205 153.468 82.1462C147.305 76.5996 140.064 72.3837 132.199 69.7618L131.142 69.4095C131.127 69.4046 131.112 69.4156 131.112 69.4312V75.0411C131.112 77.9406 130.125 80.7537 128.313 83.0178C126.389 85.424 123.658 87.0529 120.627 87.6042L116.917 88.2787C112.053 89.163 107.034 88.446 102.613 86.2354L102.221 86.0395C99.3413 84.5995 96.7782 82.5983 94.6826 80.1535Z" fill="url(#paint2_linear_9_188)"/>
</g>
<g filter="url(#filter11_d_9_188)">
<path d="M123.469 24.3466L113.762 23.1332H112.724C106.751 23.1332 100.86 24.5239 95.5169 27.1952C95.1547 27.3764 94.8396 27.6393 94.5967 27.9633L92.6701 30.532C91.3262 32.3239 90.4007 34.3939 89.9614 36.5903L89.54 38.6975C89.3048 39.8732 89.3337 41.0864 89.6245 42.2496C90.2551 44.7721 92.0587 46.8384 94.4729 47.804L97.1592 48.8785C97.6161 49.0613 98.014 49.3662 98.3093 49.7599C100.878 53.1846 104.057 56.105 107.687 58.3739L111.555 60.791C113.017 61.7049 114.614 62.3834 116.287 62.8016L118.668 63.397C122.8 64.43 127.171 63.2193 130.183 60.2077C131.737 58.6537 132.839 56.7067 133.372 54.5747L133.558 53.8291C133.854 52.6472 134.003 51.4336 134.003 50.2154V44.8205L133.048 33.3623C132.748 29.7515 130.432 26.6206 127.068 25.2749C125.913 24.8129 124.704 24.5009 123.469 24.3466Z" fill="#FCCBC6"/>
</g>
<g filter="url(#filter12_i_9_188)">
<path d="M124.765 31.7591L128.623 34.074C129.316 34.4899 130.053 34.8287 130.819 35.0843L131.671 35.3681C133.192 35.875 134.828 35.9202 136.375 35.498C138.261 34.9832 139.897 33.8051 140.984 32.1802L141.232 31.8081C142.183 29.9065 142.678 27.8096 142.678 25.6835V24.9674C142.678 23.7492 142.529 22.5355 142.233 21.3537C141.578 18.7338 140.224 16.3412 138.314 14.4316L137.33 13.447C135.142 11.2596 132.475 9.61145 129.541 8.63319L126.924 7.761C125.867 7.40871 124.76 7.22911 123.646 7.22911H121.126C119.235 7.22911 117.469 6.28411 116.42 4.71081C115.64 3.54025 114.451 2.70258 113.086 2.36137L109.594 1.48819C105.706 0.51625 101.622 0.673108 97.8199 1.94037L97.2019 2.14636C95.7528 2.6294 94.5061 3.58167 93.6588 4.85261L92.6336 6.39035C92.269 6.93726 92.0744 7.57986 92.0744 8.23717C92.0744 10.0759 90.5838 11.5666 88.745 11.5666H87.0986C86.5638 11.5666 86.0325 11.6528 85.5251 11.8219L84.3872 12.2012C82.8026 12.7294 81.4168 13.7283 80.4146 15.0645C78.5981 17.4865 77.6162 20.4322 77.6162 23.4596V29.5678C77.6162 30.0961 77.6684 30.6232 77.772 31.1413C78.5221 34.8918 81.8151 37.5914 85.6398 37.5914H88.1547C88.8251 37.5914 89.4804 37.3929 90.0382 37.0211C91.8328 35.8247 94.2735 36.5828 95.0745 38.5853L95.6719 40.0788C95.8288 40.4711 96.4119 40.3588 96.4119 39.9363V36.1455V31.0852V30.3623C96.4119 27.9667 98.3538 26.0248 100.749 26.0248H105.586C108.071 26.0248 110.481 26.8704 112.422 28.4226L114.118 29.7801C115.716 31.058 117.818 31.5169 119.803 31.0207C121.489 30.5991 123.274 30.8647 124.765 31.7591Z" fill="#AA4C0E"/>
</g>
<path d="M86.2912 75.1828L89.1828 73.7369L96.412 80.966C98.3198 82.8739 100.595 84.3744 103.101 85.3765L104.379 85.8879C105.812 86.461 107.294 86.9016 108.807 87.2042C112.078 87.8584 115.446 87.8584 118.716 87.2042L120.991 86.7493L122.651 86.1961C124.412 85.6091 126.012 84.6202 127.324 83.3077C128.856 81.7755 129.943 79.8555 130.469 77.7533L130.667 76.9623C130.962 75.7804 131.112 74.5667 131.112 73.3485V69.3995L135.198 70.7615C135.348 70.8115 135.449 70.9521 135.449 71.1104C135.449 72.8549 135.235 74.5927 134.812 76.285L134.003 79.5202L133.595 80.7449C132.913 82.792 131.763 84.652 130.237 86.1778C128.906 87.5088 127.319 88.5556 125.571 89.2547L124.49 89.687C122.179 90.6117 119.712 91.0868 117.222 91.0868H114.923C113.188 91.0868 111.456 90.9434 109.744 90.6581L108.686 90.4818C105.352 89.9262 102.153 88.7483 99.2555 87.0096C97.3669 85.8765 95.6245 84.516 94.0671 82.9587L92.0745 80.966L86.2912 75.1828Z" fill="#EAEAEA"/>
<path d="M92.585 99.337L81.9537 78.0744L77.7867 80.5746C75.7868 81.7745 74.1706 83.5199 73.1276 85.6059C72.2762 87.3087 71.833 89.1863 71.833 91.0901V93.9784L74.9527 98.346C82.4407 108.829 87.8256 120.664 90.8095 133.197L92.248 139.238C93.0933 142.789 93.5203 146.426 93.5203 150.075V159.722C93.5203 163.043 92.4988 166.283 90.5945 169.003L90.4836 169.162C86.3139 175.119 78.641 177.497 71.833 174.944L71.6672 175.939C70.8299 180.963 71.3873 186.12 73.2788 190.848L82.0272 189.099C85.786 188.347 89.3287 186.763 92.3953 184.463C96.8774 181.102 100.137 176.366 101.676 170.979L103.096 166.009C104.413 161.399 104.912 156.594 104.571 151.812L103.726 139.992C102.715 125.841 98.9298 112.027 92.585 99.337Z" fill="url(#paint3_linear_9_188)"/>
<path d="M158.582 114.22L156.185 99.0345C154.909 90.9554 151.77 83.2842 147.016 76.6285L141.232 73.7369L143.855 80.0315C146.912 87.3679 148.974 95.1878 149.96 103.074C150.877 110.41 152.743 117.695 155.489 124.559C158.5 132.087 160.437 140.001 161.244 148.069L161.474 150.365C163.374 142.765 163.429 134.82 161.635 127.193L158.582 114.22Z" fill="url(#paint4_radial_9_188)"/>
<g filter="url(#filter13_i_9_188)">
<path d="M101.165 152.183L94.9733 146.668L70.1023 154.942L74.7573 163.634L77.9348 169.29C79.7203 172.467 82.2828 175.14 85.3824 177.058L86.3479 177.655C90.1429 180.003 94.6585 180.901 99.0631 180.184C102.412 179.638 105.546 178.183 108.123 175.977L118.399 167.181L136.125 146.599L146.533 133.526C147.172 132.723 148.095 132.197 149.111 132.055L156.018 131.094L160.449 130.904C165.348 130.694 168.648 125.806 167.011 121.183C166.363 119.355 167.571 117.396 169.496 117.154L180.513 115.769C181.563 115.637 182.249 114.602 181.962 113.583C181.742 112.804 181.012 112.281 180.203 112.325L164.931 113.154L153.549 113.273C152.378 113.286 151.249 113.709 150.357 114.469L147.545 116.867C146.824 117.482 146.046 118.027 145.222 118.495L140.06 121.428L120.492 135.474L102.51 152.169C102.133 152.519 101.55 152.525 101.165 152.183Z" fill="#FCCCC6"/>
</g>
<g filter="url(#filter14_i_9_188)">
<path d="M69.9986 93.5807L71.8327 92.5327C75.6724 97.3322 78.8797 102.605 81.376 108.222L83.3993 112.774L86.2909 121.449L96.7796 145.049C97.3951 146.433 96.8811 148.06 95.5816 148.839L71.4293 163.331C70.2346 164.048 68.6931 163.336 68.464 161.961L67.8079 158.025C66.6374 151.002 64.9185 144.081 62.6669 137.326L61.6703 134.336C60.7356 131.532 60.0221 128.66 59.5362 125.744L58.287 118.249C57.6867 114.647 57.9201 110.955 58.9695 107.458C60.7302 101.589 64.6786 96.6207 69.9986 93.5807Z" fill="url(#paint5_linear_9_188)"/>
</g>
<path d="M122.504 53.4106L115.774 50.887L122.171 55.6846C122.63 56.029 123.284 55.917 123.603 55.4393L126.638 50.887L123.455 53.2742C123.182 53.479 122.823 53.5304 122.504 53.4106Z" fill="#9F6D4C"/>
<ellipse cx="113.008" cy="41.0764" rx="2" ry="3" fill="#AA4C0E"/>
<ellipse cx="124.508" cy="40.5764" rx="1.5" ry="2.5" fill="#AA4C0E"/>
<path d="M110.973 36.8414L117.864 38.5239L111.258 35.3147C110.881 35.1319 110.431 35.2028 110.129 35.4924L107 38.4926L110.304 36.9109C110.512 36.8112 110.749 36.7867 110.973 36.8414Z" fill="#D6A49E"/>
<path d="M123.944 36.1685L128.959 37.1567L124.191 35.2904C123.864 35.1623 123.494 35.2153 123.216 35.4299L121.008 37.1339L123.392 36.2164C123.568 36.1487 123.759 36.1321 123.944 36.1685Z" fill="#D6A49E"/>
<defs>
<filter id="filter0_i_9_188" x="173.04" y="99.7238" width="20.3499" height="68.9914" filterUnits="userSpaceOnUse" color-interpolation-filters="sRGB">
<feFlood flood-opacity="0" result="BackgroundImageFix"/>
<feBlend mode="normal" in="SourceGraphic" in2="BackgroundImageFix" result="shape"/>
<feColorMatrix in="SourceAlpha" type="matrix" values="0 0 0 0 0 0 0 0 0 0 0 0 0 0 0 0 0 0 127 0" result="hardAlpha"/>
<feOffset dx="3" dy="1"/>
<feGaussianBlur stdDeviation="2"/>
<feComposite in2="hardAlpha" operator="arithmetic" k2="-1" k3="1"/>
<feColorMatrix type="matrix" values="0 0 0 0 0.491667 0 0 0 0 0.491667 0 0 0 0 0.491667 0 0 0 0.25 0"/>
<feBlend mode="normal" in2="shape" result="effect1_innerShadow_9_188"/>
</filter>
<filter id="filter1_di_9_188" x="154.252" y="159.247" width="56.4758" height="63.829" filterUnits="userSpaceOnUse" color-interpolation-filters="sRGB">
<feFlood flood-opacity="0" result="BackgroundImageFix"/>
<feColorMatrix in="SourceAlpha" type="matrix" values="0 0 0 0 0 0 0 0 0 0 0 0 0 0 0 0 0 0 127 0" result="hardAlpha"/>
<feOffset dy="4"/>
<feGaussianBlur stdDeviation="8"/>
<feComposite in2="hardAlpha" operator="out"/>
<feColorMatrix type="matrix" values="0 0 0 0 1 0 0 0 0 1 0 0 0 0 1 0 0 0 1 0"/>
<feBlend mode="normal" in2="BackgroundImageFix" result="effect1_dropShadow_9_188"/>
<feBlend mode="normal" in="SourceGraphic" in2="effect1_dropShadow_9_188" result="shape"/>
<feColorMatrix in="SourceAlpha" type="matrix" values="0 0 0 0 0 0 0 0 0 0 0 0 0 0 0 0 0 0 127 0" result="hardAlpha"/>
<feOffset dy="-3"/>
<feGaussianBlur stdDeviation="2"/>
<feComposite in2="hardAlpha" operator="arithmetic" k2="-1" k3="1"/>
<feColorMatrix type="matrix" values="0 0 0 0 1 0 0 0 0 1 0 0 0 0 1 0 0 0 1 0"/>
<feBlend mode="normal" in2="shape" result="effect2_innerShadow_9_188"/>
</filter>
<filter id="filter2_i_9_188" x="48.6998" y="75.1827" width="80.0744" height="117.666" filterUnits="userSpaceOnUse" color-interpolation-filters="sRGB">
<feFlood flood-opacity="0" result="BackgroundImageFix"/>
<feBlend mode="normal" in="SourceGraphic" in2="BackgroundImageFix" result="shape"/>
<feColorMatrix in="SourceAlpha" type="matrix" values="0 0 0 0 0 0 0 0 0 0 0 0 0 0 0 0 0 0 127 0" result="hardAlpha"/>
<feOffset dx="2" dy="2"/>
<feGaussianBlur stdDeviation="2"/>
<feComposite in2="hardAlpha" operator="arithmetic" k2="-1" k3="1"/>
<feColorMatrix type="matrix" values="0 0 0 0 0.0552083 0 0 0 0 0.386947 0 0 0 0 0.441667 0 0 0 0.32 0"/>
<feBlend mode="normal" in2="shape" result="effect1_innerShadow_9_188"/>
</filter>
<filter id="filter3_i_9_188" x="160.459" y="115.425" width="127.967" height="48.5374" filterUnits="userSpaceOnUse" color-interpolation-filters="sRGB">
<feFlood flood-opacity="0" result="BackgroundImageFix"/>
<feBlend mode="normal" in="SourceGraphic" in2="BackgroundImageFix" result="shape"/>
<feColorMatrix in="SourceAlpha" type="matrix" values="0 0 0 0 0 0 0 0 0 0 0 0 0 0 0 0 0 0 127 0" result="hardAlpha"/>
<feOffset dy="-1"/>
<feGaussianBlur stdDeviation="2"/>
<feComposite in2="hardAlpha" operator="arithmetic" k2="-1" k3="1"/>
<feColorMatrix type="matrix" values="0 0 0 0 0.819608 0 0 0 0 0.580392 0 0 0 0 0.556863 0 0 0 0.25 0"/>
<feBlend mode="normal" in2="shape" result="effect1_innerShadow_9_188"/>
</filter>
<filter id="filter4_i_9_188" x="131.501" y="199.601" width="127.524" height="170.283" filterUnits="userSpaceOnUse" color-interpolation-filters="sRGB">
<feFlood flood-opacity="0" result="BackgroundImageFix"/>
<feBlend mode="normal" in="SourceGraphic" in2="BackgroundImageFix" result="shape"/>
<feColorMatrix in="SourceAlpha" type="matrix" values="0 0 0 0 0 0 0 0 0 0 0 0 0 0 0 0 0 0 127 0" result="hardAlpha"/>
<feOffset dx="-1" dy="2"/>
<feGaussianBlur stdDeviation="2"/>
<feComposite in2="hardAlpha" operator="arithmetic" k2="-1" k3="1"/>
<feColorMatrix type="matrix" values="0 0 0 0 1 0 0 0 0 0.916667 0 0 0 0 0.916667 0 0 0 0.25 0"/>
<feBlend mode="normal" in2="shape" result="effect1_innerShadow_9_188"/>
</filter>
<filter id="filter5_i_9_188" x="76.8151" y="199.168" width="160.445" height="269.545" filterUnits="userSpaceOnUse" color-interpolation-filters="sRGB">
<feFlood flood-opacity="0" result="BackgroundImageFix"/>
<feBlend mode="normal" in="SourceGraphic" in2="BackgroundImageFix" result="shape"/>
<feColorMatrix in="SourceAlpha" type="matrix" values="0 0 0 0 0 0 0 0 0 0 0 0 0 0 0 0 0 0 127 0" result="hardAlpha"/>
<feOffset dx="-1" dy="2"/>
<feGaussianBlur stdDeviation="3"/>
<feComposite in2="hardAlpha" operator="arithmetic" k2="-1" k3="1"/>
<feColorMatrix type="matrix" values="0 0 0 0 1 0 0 0 0 1 0 0 0 0 1 0 0 0 0.25 0"/>
<feBlend mode="normal" in2="shape" result="effect1_innerShadow_9_188"/>
</filter>
<filter id="filter6_i_9_188" x="218.993" y="467.689" width="67.131" height="44.1974" filterUnits="userSpaceOnUse" color-interpolation-filters="sRGB">
<feFlood flood-opacity="0" result="BackgroundImageFix"/>
<feBlend mode="normal" in="SourceGraphic" in2="BackgroundImageFix" result="shape"/>
<feColorMatrix in="SourceAlpha" type="matrix" values="0 0 0 0 0 0 0 0 0 0 0 0 0 0 0 0 0 0 127 0" result="hardAlpha"/>
<feOffset/>
<feGaussianBlur stdDeviation="3"/>
<feComposite in2="hardAlpha" operator="arithmetic" k2="-1" k3="1"/>
<feColorMatrix type="matrix" values="0 0 0 0 0.891667 0 0 0 0 0.891667 0 0 0 0 0.891667 0 0 0 0.56 0"/>
<feBlend mode="normal" in2="shape" result="effect1_innerShadow_9_188"/>
</filter>
<filter id="filter7_i_9_188" x="34.2415" y="106.991" width="40.483" height="73.3994" filterUnits="userSpaceOnUse" color-interpolation-filters="sRGB">
<feFlood flood-opacity="0" result="BackgroundImageFix"/>
<feBlend mode="normal" in="SourceGraphic" in2="BackgroundImageFix" result="shape"/>
<feColorMatrix in="SourceAlpha" type="matrix" values="0 0 0 0 0 0 0 0 0 0 0 0 0 0 0 0 0 0 127 0" result="hardAlpha"/>
<feOffset dy="4"/>
<feGaussianBlur stdDeviation="2"/>
<feComposite in2="hardAlpha" operator="arithmetic" k2="-1" k3="1"/>
<feColorMatrix type="matrix" values="0 0 0 0 1 0 0 0 0 1 0 0 0 0 1 0 0 0 0.25 0"/>
<feBlend mode="normal" in2="shape" result="effect1_innerShadow_9_188"/>
</filter>
<filter id="filter8_i_9_188" x="16.8917" y="111.637" width="20.3499" height="77.3195" filterUnits="userSpaceOnUse" color-interpolation-filters="sRGB">
<feFlood flood-opacity="0" result="BackgroundImageFix"/>
<feBlend mode="normal" in="SourceGraphic" in2="BackgroundImageFix" result="shape"/>
<feColorMatrix in="SourceAlpha" type="matrix" values="0 0 0 0 0 0 0 0 0 0 0 0 0 0 0 0 0 0 127 0" result="hardAlpha"/>
<feOffset dx="3" dy="1"/>
<feGaussianBlur stdDeviation="2"/>
<feComposite in2="hardAlpha" operator="arithmetic" k2="-1" k3="1"/>
<feColorMatrix type="matrix" values="0 0 0 0 0.491667 0 0 0 0 0.491667 0 0 0 0 0.491667 0 0 0 0.25 0"/>
<feBlend mode="normal" in2="shape" result="effect1_innerShadow_9_188"/>
</filter>
<filter id="filter9_di_9_188" x="0.103149" y="181.489" width="52.4758" height="59.829" filterUnits="userSpaceOnUse" color-interpolation-filters="sRGB">
<feFlood flood-opacity="0" result="BackgroundImageFix"/>
<feColorMatrix in="SourceAlpha" type="matrix" values="0 0 0 0 0 0 0 0 0 0 0 0 0 0 0 0 0 0 127 0" result="hardAlpha"/>
<feOffset dy="4"/>
<feGaussianBlur stdDeviation="7"/>
<feComposite in2="hardAlpha" operator="out"/>
<feColorMatrix type="matrix" values="0 0 0 0 1 0 0 0 0 1 0 0 0 0 1 0 0 0 1 0"/>
<feBlend mode="normal" in2="BackgroundImageFix" result="effect1_dropShadow_9_188"/>
<feBlend mode="normal" in="SourceGraphic" in2="effect1_dropShadow_9_188" result="shape"/>
<feColorMatrix in="SourceAlpha" type="matrix" values="0 0 0 0 0 0 0 0 0 0 0 0 0 0 0 0 0 0 127 0" result="hardAlpha"/>
<feOffset dy="-3"/>
<feGaussianBlur stdDeviation="2"/>
<feComposite in2="hardAlpha" operator="arithmetic" k2="-1" k3="1"/>
<feColorMatrix type="matrix" values="0 0 0 0 1 0 0 0 0 1 0 0 0 0 1 0 0 0 1 0"/>
<feBlend mode="normal" in2="shape" result="effect2_innerShadow_9_188"/>
</filter>
<filter id="filter10_i_9_188" x="69.8329" y="68.4083" width="111.06" height="154.248" filterUnits="userSpaceOnUse" color-interpolation-filters="sRGB">
<feFlood flood-opacity="0" result="BackgroundImageFix"/>
<feBlend mode="normal" in="SourceGraphic" in2="BackgroundImageFix" result="shape"/>
<feColorMatrix in="SourceAlpha" type="matrix" values="0 0 0 0 0 0 0 0 0 0 0 0 0 0 0 0 0 0 127 0" result="hardAlpha"/>
<feOffset dx="-2" dy="-1"/>
<feGaussianBlur stdDeviation="2"/>
<feComposite in2="hardAlpha" operator="arithmetic" k2="-1" k3="1"/>
<feColorMatrix type="matrix" values="0 0 0 0 1 0 0 0 0 1 0 0 0 0 1 0 0 0 0.25 0"/>
<feBlend mode="normal" in2="shape" result="effect1_innerShadow_9_188"/>
</filter>
<filter id="filter11_d_9_188" x="86.3827" y="23.1332" width="50.6207" height="47.6261" filterUnits="userSpaceOnUse" color-interpolation-filters="sRGB">
<feFlood flood-opacity="0" result="BackgroundImageFix"/>
<feColorMatrix in="SourceAlpha" type="matrix" values="0 0 0 0 0 0 0 0 0 0 0 0 0 0 0 0 0 0 127 0" result="hardAlpha"/>
<feOffset dy="4"/>
<feGaussianBlur stdDeviation="1.5"/>
<feComposite in2="hardAlpha" operator="out"/>
<feColorMatrix type="matrix" values="0 0 0 0 1 0 0 0 0 1 0 0 0 0 1 0 0 0 0.21 0"/>
<feBlend mode="normal" in2="BackgroundImageFix" result="effect1_dropShadow_9_188"/>
<feBlend mode="normal" in="SourceGraphic" in2="effect1_dropShadow_9_188" result="shape"/>
</filter>
<filter id="filter12_i_9_188" x="77.6162" y="0.85907" width="65.062" height="40.4614" filterUnits="userSpaceOnUse" color-interpolation-filters="sRGB">
<feFlood flood-opacity="0" result="BackgroundImageFix"/>
<feBlend mode="normal" in="SourceGraphic" in2="BackgroundImageFix" result="shape"/>
<feColorMatrix in="SourceAlpha" type="matrix" values="0 0 0 0 0 0 0 0 0 0 0 0 0 0 0 0 0 0 127 0" result="hardAlpha"/>
<feOffset dy="1"/>
<feGaussianBlur stdDeviation="2"/>
<feComposite in2="hardAlpha" operator="arithmetic" k2="-1" k3="1"/>
<feColorMatrix type="matrix" values="0 0 0 0 0.4875 0 0 0 0 0.194974 0 0 0 0 0.00203124 0 0 0 1 0"/>
<feBlend mode="normal" in2="shape" result="effect1_innerShadow_9_188"/>
</filter>
<filter id="filter13_i_9_188" x="70.1024" y="110.323" width="111.925" height="70.1021" filterUnits="userSpaceOnUse" color-interpolation-filters="sRGB">
<feFlood flood-opacity="0" result="BackgroundImageFix"/>
<feBlend mode="normal" in="SourceGraphic" in2="BackgroundImageFix" result="shape"/>
<feColorMatrix in="SourceAlpha" type="matrix" values="0 0 0 0 0 0 0 0 0 0 0 0 0 0 0 0 0 0 127 0" result="hardAlpha"/>
<feOffset dy="-2"/>
<feGaussianBlur stdDeviation="2"/>
<feComposite in2="hardAlpha" operator="arithmetic" k2="-1" k3="1"/>
<feColorMatrix type="matrix" values="0 0 0 0 0.820833 0 0 0 0 0.581867 0 0 0 0 0.557483 0 0 0 1 0"/>
<feBlend mode="normal" in2="shape" result="effect1_innerShadow_9_188"/>
</filter>
<filter id="filter14_i_9_188" x="57.962" y="91.5327" width="40.0766" height="72.0814" filterUnits="userSpaceOnUse" color-interpolation-filters="sRGB">
<feFlood flood-opacity="0" result="BackgroundImageFix"/>
<feBlend mode="normal" in="SourceGraphic" in2="BackgroundImageFix" result="shape"/>
<feColorMatrix in="SourceAlpha" type="matrix" values="0 0 0 0 0 0 0 0 0 0 0 0 0 0 0 0 0 0 127 0" result="hardAlpha"/>
<feOffset dx="1" dy="-1"/>
<feGaussianBlur stdDeviation="2"/>
<feComposite in2="hardAlpha" operator="arithmetic" k2="-1" k3="1"/>
<feColorMatrix type="matrix" values="0 0 0 0 1 0 0 0 0 1 0 0 0 0 1 0 0 0 0.34 0"/>
<feBlend mode="normal" in2="shape" result="effect1_innerShadow_9_188"/>
</filter>
<linearGradient id="paint0_linear_9_188" x1="108.897" y1="225.923" x2="248.373" y2="360.306" gradientUnits="userSpaceOnUse">
<stop stop-color="#0C3E65"/>
<stop offset="0.442708" stop-color="#054D88"/>
<stop offset="1" stop-color="#0C3E65"/>
</linearGradient>
<linearGradient id="paint1_linear_9_188" x1="78.4628" y1="213.518" x2="225.875" y2="460.317" gradientUnits="userSpaceOnUse">
<stop stop-color="#054D88"/>
<stop offset="1" stop-color="#0C3E65"/>
</linearGradient>
<linearGradient id="paint2_linear_9_188" x1="100.749" y1="85.3035" x2="132.557" y2="222.657" gradientUnits="userSpaceOnUse">
<stop stop-color="#72B5BB"/>
<stop offset="1" stop-color="#6289E8"/>
</linearGradient>
<linearGradient id="paint3_linear_9_188" x1="87.737" y1="78.0744" x2="87.737" y2="190.849" gradientUnits="userSpaceOnUse">
<stop stop-color="white"/>
<stop offset="1" stop-color="#9DC3F2"/>
</linearGradient>
<radialGradient id="paint4_radial_9_188" cx="0" cy="0" r="1" gradientUnits="userSpaceOnUse" gradientTransform="translate(148.461 75.1827) rotate(81.0851) scale(74.6386 22.5324)">
<stop stop-color="white"/>
<stop offset="1" stop-color="#9DC3F2"/>
</radialGradient>
<linearGradient id="paint5_linear_9_188" x1="79.7848" y1="92.5327" x2="81.9535" y2="150.366" gradientUnits="userSpaceOnUse">
<stop stop-color="#82BAC7"/>
<stop offset="1" stop-color="#6691E1"/>
</linearGradient>
</defs>
</svg>
