<svg width="10" height="10" viewBox="0 0 10 10" fill="none" xmlns="http://www.w3.org/2000/svg">
<path d="M3.51206 1.66373C3.73491 -0.0831842 6.26509 -0.0831833 6.48794 1.66373L6.55019 2.15169C6.63667 2.82958 7.17042 3.36333 7.84831 3.44981L8.33627 3.51206C10.0832 3.73491 10.0832 6.26509 8.33627 6.48794L7.84831 6.55019C7.17042 6.63667 6.63667 7.17042 6.55019 7.84831L6.48794 8.33627C6.26509 10.0832 3.73491 10.0832 3.51206 8.33627L3.44981 7.84831C3.36333 7.17042 2.82958 6.63667 2.15169 6.55019L1.66373 6.48794C-0.0831842 6.26509 -0.0831833 3.73491 1.66373 3.51206L2.15169 3.44981C2.82958 3.36333 3.36333 2.82958 3.44981 2.15169L3.51206 1.66373Z" fill="white" fill-opacity="0.79"/>
</svg>
