<?xml version="1.0" standalone="no"?>
<!DOCTYPE svg PUBLIC "-//W3C//DTD SVG 20010904//EN"
 "http://www.w3.org/TR/2001/REC-SVG-20010904/DTD/svg10.dtd">
<svg version="1.0" xmlns="http://www.w3.org/2000/svg"
 width="512.000000pt" height="512.000000pt" viewBox="0 0 512.000000 512.000000"
 preserveAspectRatio="xMidYMid meet">

<g transform="translate(0.000000,512.000000) scale(0.100000,-0.100000)"
fill="#000000" stroke="none">
<path d="M2350 3989 c-360 -40 -728 -174 -1095 -398 -284 -173 -610 -439 -854
-699 -222 -235 -252 -283 -237 -365 9 -48 116 -177 301 -363 673 -677 1410
-1044 2095 -1044 635 0 1310 314 1957 909 136 124 323 323 397 420 37 49 41
60 41 111 0 51 -4 62 -42 112 -71 95 -260 295 -397 420 -720 662 -1474 974
-2166 897z m388 -320 c454 -50 930 -279 1407 -678 50 -42 171 -155 270 -253
l180 -178 -190 -188 c-557 -550 -1121 -861 -1667 -921 -657 -73 -1372 262
-2078 973 l-135 136 135 136 c445 447 874 735 1316 883 264 88 515 117 762 90z"/>
<path d="M2410 3346 c-187 -40 -340 -130 -460 -271 -227 -268 -252 -656 -60
-948 278 -427 875 -490 1234 -131 359 359 296 956 -131 1234 -75 50 -143 79
-243 107 -78 21 -260 26 -340 9z m265 -321 c172 -45 305 -179 350 -352 65
-249 -94 -511 -350 -578 -251 -65 -513 94 -580 350 -89 343 237 669 580 580z"/>
</g>
</svg>
